<?xml version="1.0" standalone="no"?>
<!DOCTYPE svg PUBLIC "-//W3C//DTD SVG 20010904//EN"
 "http://www.w3.org/TR/2001/REC-SVG-20010904/DTD/svg10.dtd">
<svg version="1.0" xmlns="http://www.w3.org/2000/svg"
 width="700.000000pt" height="700.000000pt" viewBox="0 0 700.000000 700.000000"
 preserveAspectRatio="xMidYMid meet">
<metadata>
Created by potrace 1.14, written by Peter Selinger 2001-2017
</metadata>
<g transform="translate(0.000000,700.000000) scale(0.100000,-0.100000)"
fill="#000000" stroke="none">
<path d="M3348 6785 c-173 -71 -278 -223 -278 -406 0 -296 304 -505 581 -399
113 44 221 155 255 263 20 63 26 169 13 228 -22 104 -93 207 -181 266 -87 58
-132 71 -244 71 -70 0 -101 -5 -146 -23z m241 -130 c161 -56 240 -236 172
-391 -82 -185 -334 -227 -472 -77 -49 54 -70 100 -76 173 -18 204 185 363 376
295z"/>
<path d="M2844 5981 c-99 -33 -170 -117 -204 -241 -15 -56 -16 -182 -1 -235 6
-22 11 -45 11 -50 0 -6 -36 -16 -81 -23 -206 -33 -393 -99 -459 -163 -77 -75
-47 -154 94 -244 144 -92 322 -157 554 -201 60 -12 136 -49 181 -90 56 -51
115 -159 136 -251 28 -121 46 -220 50 -273 5 -59 2 -74 -33 -160 l-39 -95 -89
-39 c-110 -49 -151 -51 -309 -21 -210 40 -321 89 -394 171 -48 55 -72 115
-106 267 -55 245 -134 424 -237 538 -57 62 -116 76 -168 39 -35 -25 -80 -102
-113 -196 -27 -75 -77 -296 -77 -339 0 -27 -11 -30 -56 -15 -46 16 -154 18
-220 4 -166 -34 -277 -147 -277 -284 0 -75 30 -139 97 -204 106 -104 359 -201
605 -231 30 -4 63 -9 75 -11 112 -22 525 -22 656 0 14 3 59 10 100 16 108 17
238 49 348 87 24 8 45 13 48 10 5 -4 -108 -160 -147 -202 -28 -32 -17 -65 52
-152 35 -45 73 -96 83 -114 19 -32 19 -32 0 -24 -18 8 -164 53 -194 60 -73 18
-216 45 -265 50 -33 4 -69 9 -80 12 -11 3 -112 6 -225 8 -243 4 -373 -7 -565
-46 -228 -46 -384 -112 -483 -204 -182 -168 -122 -402 124 -483 70 -23 205
-27 271 -7 51 15 45 24 67 -95 30 -167 51 -242 96 -335 45 -94 68 -122 109
-136 46 -16 93 4 146 63 106 118 196 342 241 598 11 59 40 137 68 179 56 84
198 157 359 185 15 3 35 7 45 10 29 9 74 16 137 21 54 4 71 0 165 -38 100 -40
106 -44 127 -87 46 -93 66 -169 59 -224 -7 -60 -14 -101 -22 -136 -3 -14 -8
-38 -11 -55 -10 -65 -65 -210 -99 -262 -66 -98 -107 -119 -346 -179 -244 -60
-411 -135 -517 -229 -166 -149 13 -283 479 -360 19 -3 36 -8 38 -9 2 -2 -3
-35 -11 -72 -49 -244 80 -465 276 -473 209 -9 369 243 442 694 32 200 38 550
11 735 -3 25 -19 120 -21 130 -1 3 -5 25 -9 50 -15 85 -74 285 -114 386 -57
143 -154 320 -236 431 l-45 62 74 111 c324 478 439 1093 329 1750 -75 446
-277 697 -500 621z m158 -162 c66 -47 139 -195 178 -362 19 -82 24 -106 35
-182 3 -23 7 -50 9 -62 24 -124 23 -544 -2 -662 l-7 -34 -18 59 c-28 94 -87
201 -139 254 -66 67 -145 102 -338 149 -189 45 -241 61 -326 102 -112 54 -131
92 -66 133 37 23 150 59 222 71 19 3 58 10 85 15 28 5 71 12 98 15 83 9 113
47 87 109 -57 137 -66 214 -35 305 28 84 105 141 164 119 13 -5 37 -18 53 -29z
m-1132 -1131 c49 -53 128 -267 156 -428 46 -256 146 -371 394 -456 45 -15 57
-23 40 -24 -14 -1 -34 -3 -45 -5 -118 -23 -435 -23 -615 0 -32 4 -53 7 -145
21 -318 49 -551 199 -500 321 43 101 208 145 350 92 33 -12 64 -25 70 -30 28
-26 104 9 106 49 0 9 2 24 3 32 2 8 6 35 10 60 10 77 17 112 38 198 41 172 85
226 138 170z m500 -1452 c14 -2 38 -5 54 -5 37 -1 25 -14 -29 -31 -80 -26
-169 -75 -221 -123 -69 -62 -113 -154 -143 -297 -39 -185 -72 -296 -114 -381
-50 -99 -78 -121 -114 -87 -44 41 -86 194 -118 428 -7 53 -29 90 -53 91 -32 2
-57 -3 -77 -15 -94 -59 -259 -57 -344 4 -97 70 -84 157 37 245 83 60 293 130
452 150 30 4 64 9 74 11 10 2 55 6 100 10 45 3 83 8 85 9 4 5 379 -4 411 -9z
m866 -921 c11 -162 6 -395 -11 -515 -21 -140 -30 -187 -52 -275 -31 -124 -54
-182 -109 -265 -44 -68 -100 -110 -146 -110 -42 0 -91 41 -121 100 -44 88 -38
209 14 312 44 87 20 113 -122 134 -187 27 -321 65 -379 106 -40 29 -19 66 65
110 66 35 190 81 245 92 160 30 276 63 343 99 102 54 189 174 233 322 l18 60
7 -35 c5 -19 11 -80 15 -135z"/>
<path d="M4025 5990 c-178 -41 -315 -280 -379 -660 -24 -141 -31 -245 -31
-445 0 -220 5 -281 40 -465 60 -327 204 -664 372 -877 l33 -41 -24 -29 c-77
-92 -199 -309 -256 -456 -18 -45 -36 -91 -41 -102 -35 -81 -100 -380 -117
-540 -14 -137 -5 -595 13 -625 2 -3 6 -27 9 -55 43 -322 165 -575 315 -652
168 -88 339 9 396 224 18 66 18 171 0 241 l-12 47 61 12 c33 7 77 15 96 18
190 33 380 117 415 185 21 40 19 56 -9 105 -63 107 -328 236 -574 280 -68 12
-184 46 -220 64 -118 60 -194 218 -238 493 -17 106 -17 107 5 173 13 36 33 89
46 118 23 52 23 52 121 92 113 46 162 49 305 20 183 -36 304 -86 373 -152 58
-55 97 -158 130 -335 21 -120 75 -262 142 -378 82 -142 164 -201 232 -166 40
21 86 88 118 173 27 71 77 273 89 356 4 26 8 47 9 47 0 0 23 -7 49 -15 70 -21
216 -14 289 14 121 47 196 134 205 241 20 218 -229 385 -677 456 -19 3 -45 7
-56 9 -77 12 -225 20 -384 20 -238 -1 -327 -9 -519 -52 -127 -28 -200 -48
-250 -69 -18 -8 -36 -13 -38 -10 -6 6 61 105 116 171 57 69 55 87 -24 185 -35
44 -71 93 -80 110 l-16 31 28 -7 c15 -4 36 -11 45 -15 21 -11 242 -67 294 -74
21 -3 60 -10 85 -15 166 -33 542 -31 774 5 17 3 48 7 70 11 68 10 227 52 300
79 268 100 394 284 309 452 -73 147 -281 223 -472 172 -23 -7 -45 -10 -47 -7
-2 2 -7 22 -10 44 -4 21 -8 46 -10 54 -2 8 -7 31 -10 50 -12 75 -59 228 -91
296 -99 210 -227 171 -364 -111 -55 -114 -87 -210 -125 -375 -43 -188 -88
-261 -199 -323 -72 -40 -226 -84 -361 -103 l-120 -17 -99 38 c-113 44 -118 50
-167 185 -34 95 -34 113 2 294 58 289 147 402 354 447 33 7 66 14 74 15 223
41 443 137 547 238 100 98 80 165 -72 241 -61 31 -209 80 -274 90 -119 20
-157 27 -166 30 -9 3 -8 19 2 62 65 269 -116 533 -331 483z m136 -180 c22 -23
45 -60 53 -88 21 -71 14 -176 -17 -247 -50 -114 -36 -148 64 -160 41 -5 159
-25 230 -40 75 -15 163 -49 191 -74 31 -28 32 -29 15 -55 -34 -52 -209 -121
-407 -161 -201 -41 -275 -71 -352 -143 -51 -48 -131 -191 -144 -257 -6 -33
-24 -49 -24 -22 0 6 -4 44 -7 82 -14 133 -5 556 11 585 2 3 6 28 10 57 24 205
95 404 178 498 47 53 67 63 122 64 33 1 45 -5 77 -39z m1045 -1133 c26 -42 49
-106 67 -192 16 -71 21 -100 37 -215 14 -102 48 -120 146 -75 142 65 307 40
372 -55 94 -139 -163 -303 -559 -355 -30 -4 -65 -9 -79 -11 -165 -23 -502 -20
-635 5 l-40 7 59 18 c152 45 268 129 323 233 33 62 45 102 93 306 37 158 89
291 138 350 23 27 55 21 78 -16z m-66 -1441 c14 -2 50 -7 80 -11 113 -13 138
-18 247 -45 320 -81 472 -244 329 -354 -82 -62 -219 -71 -328 -22 -68 31 -89
34 -121 17 -20 -11 -28 -24 -33 -60 -47 -349 -105 -502 -174 -459 -44 28 -113
194 -149 363 -58 268 -81 326 -161 405 -50 50 -184 123 -248 136 -54 11 -36
22 46 29 42 3 84 8 92 9 22 5 391 -2 420 -8z m-1346 -820 c12 -62 85 -193 137
-246 78 -79 137 -103 404 -161 117 -25 210 -56 282 -93 106 -53 116 -94 33
-136 -42 -21 -162 -56 -225 -65 -22 -4 -47 -8 -55 -10 -8 -2 -40 -7 -70 -10
-139 -15 -153 -38 -104 -165 29 -74 33 -95 30 -161 -2 -61 -8 -85 -32 -129
-96 -176 -252 -84 -350 206 -28 83 -67 289 -80 419 -10 97 -11 407 -2 490 4
33 7 70 8 83 0 33 17 18 24 -22z"/>
<path d="M608 3935 c-2 -2 -26 -5 -55 -8 -125 -13 -268 -121 -326 -246 -26
-57 -31 -79 -34 -164 -2 -80 1 -108 19 -155 70 -188 237 -299 433 -288 129 7
240 69 320 177 157 213 81 516 -159 634 -42 21 -97 38 -133 43 -35 5 -64 8
-65 7z m134 -174 c215 -104 216 -412 2 -517 -142 -70 -323 -6 -387 135 -71
158 5 336 170 397 53 20 159 13 215 -15z"/>
<path d="M6247 3910 c-153 -49 -266 -180 -292 -340 -15 -89 -2 -170 39 -255
132 -269 479 -326 689 -112 78 78 116 163 123 266 9 148 -43 266 -166 373 -92
81 -263 110 -393 68z m255 -149 c218 -105 217 -411 0 -518 -77 -38 -173 -38
-247 0 -232 118 -213 442 32 533 53 20 159 13 215 -15z"/>
<path d="M3361 1030 c-70 -26 -126 -62 -178 -117 -41 -43 -94 -136 -101 -178
-23 -134 -16 -202 32 -300 119 -242 424 -318 639 -160 61 45 132 142 153 208
20 63 26 169 13 228 -28 127 -123 244 -246 302 -59 27 -81 32 -163 34 -76 3
-106 -1 -149 -17z m261 -149 c101 -49 161 -143 161 -256 1 -308 -409 -402
-546 -126 -31 65 -31 188 1 249 39 74 103 127 182 153 43 14 154 4 202 -20z"/>
</g>
</svg>
